<svg width="100%" height="100%" id="svg" viewBox="0 0 1440 690" xmlns="http://www.w3.org/2000/svg" class="transition duration-300 ease-in-out delay-150"><defs><linearGradient id="gradient" x1="0%" y1="50%" x2="100%" y2="50%"><stop offset="5%" stop-color="#d544a2"></stop><stop offset="95%" stop-color="#d2c1f1"></stop></linearGradient></defs><path d="M 0,700 L 0,105 C 79.35128205128203,77.11410256410255 158.70256410256405,49.22820512820512 236,62 C 313.29743589743595,74.77179487179488 388.5410256410257,128.20128205128205 472,162 C 555.4589743589743,195.79871794871795 647.1333333333333,209.9666666666667 717,240 C 786.8666666666667,270.0333333333333 834.9256410256412,315.93205128205125 920,341 C 1005.0743589743588,366.06794871794875 1127.1641025641024,370.3051282051282 1220,390 C 1312.8358974358976,409.6948717948718 1376.4179487179488,444.8474358974359 1440,480 L 1440,700 L 0,700 Z" stroke="none" stroke-width="0" fill="url(#gradient)" fill-opacity="0.265" class="transition-all duration-300 ease-in-out delay-150 path-0"></path><defs><linearGradient id="gradient" x1="0%" y1="50%" x2="100%" y2="50%"><stop offset="5%" stop-color="#d544a2"></stop><stop offset="95%" stop-color="#d2c1f1"></stop></linearGradient></defs><path d="M 0,700 L 0,245 C 86.97435897435895,225.37307692307692 173.9487179487179,205.74615384615385 256,218 C 338.0512820512821,230.25384615384615 415.1794871794873,274.3884615384615 498,311 C 580.8205128205127,347.6115384615385 669.3333333333333,376.7 750,402 C 830.6666666666667,427.3 903.4871794871794,448.8115384615384 968,475 C 1032.5128205128206,501.1884615384616 1088.7179487179487,532.0538461538462 1166,557 C 1243.2820512820513,581.9461538461538 1341.6410256410256,600.9730769230769 1440,620 L 1440,700 L 0,700 Z" stroke="none" stroke-width="0" fill="url(#gradient)" fill-opacity="0.4" class="transition-all duration-300 ease-in-out delay-150 path-1"></path><defs><linearGradient id="gradient" x1="0%" y1="50%" x2="100%" y2="50%"><stop offset="5%" stop-color="#d544a2"></stop><stop offset="95%" stop-color="#d2c1f1"></stop></linearGradient></defs><path d="M 0,700 L 0,385 C 72.64102564102564,384.45000000000005 145.28205128205127,383.90000000000003 231,392 C 316.71794871794873,400.09999999999997 415.51282051282055,416.85 493,451 C 570.4871794871794,485.15 626.6666666666666,536.7 697,569 C 767.3333333333334,601.3 851.8205128205127,614.35 936,642 C 1020.1794871794873,669.65 1104.051282051282,711.9 1188,734 C 1271.948717948718,756.1 1355.974358974359,758.05 1440,760 L 1440,700 L 0,700 Z" stroke="none" stroke-width="0" fill="url(#gradient)" fill-opacity="0.53" class="transition-all duration-300 ease-in-out delay-150 path-2"></path><defs><linearGradient id="gradient" x1="0%" y1="50%" x2="100%" y2="50%"><stop offset="5%" stop-color="#d544a2"></stop><stop offset="95%" stop-color="#d2c1f1"></stop></linearGradient></defs><path d="M 0,700 L 0,525 C 91.31025641025641,507.1166666666667 182.62051282051283,489.23333333333335 250,513 C 317.37948717948717,536.7666666666667 360.8282051282051,602.1833333333334 444,619 C 527.1717948717949,635.8166666666666 650.0666666666666,604.0333333333333 731,624 C 811.9333333333334,643.9666666666667 850.9051282051282,715.6833333333335 920,749 C 989.0948717948718,782.3166666666665 1088.3128205128205,777.2333333333332 1180,796 C 1271.6871794871795,814.7666666666668 1355.8435897435897,857.3833333333334 1440,900 L 1440,700 L 0,700 Z" stroke="none" stroke-width="0" fill="url(#gradient)" fill-opacity="1" class="transition-all duration-300 ease-in-out delay-150 path-3"></path></svg>